<svg width="760" height="383" viewBox="0 0 760 383" fill="none" xmlns="http://www.w3.org/2000/svg">
<rect width="760" height="383" fill="#F5F5F5"/>
<g clip-path="url(#clip0_0_1)">
<path fill-rule="evenodd" clip-rule="evenodd" d="M751.852 252.305H622.389C617.889 252.305 614.241 248.648 614.241 244.137V44.9476C614.241 40.4367 617.888 36.78 622.389 36.78H751.852C756.353 36.78 760 40.4367 760 44.9476V244.137C760 248.648 756.353 252.305 751.852 252.305Z" fill="#FDFDFD" stroke="#7E89A3" stroke-width="2"/>
<path fill-rule="evenodd" clip-rule="evenodd" d="M751.852 252.305H622.389C617.889 252.305 614.241 248.648 614.241 244.137V44.9476C614.241 40.4367 617.888 36.78 622.389 36.78H751.852C756.353 36.78 760 40.4367 760 44.9476V244.137C760 248.648 756.353 252.305 751.852 252.305Z" fill="#FDFDFD" stroke="#7E89A3" stroke-width="2"/>
<path d="M749.148 58.4857H625.714V230.486H749.148V58.4857Z" fill="white" stroke="#7E89A3"/>
<path d="M687.445 246.213C690.45 246.213 692.885 243.77 692.885 240.758C692.885 237.745 690.45 235.303 687.445 235.303C684.441 235.303 682.006 237.745 682.006 240.758C682.006 243.77 684.441 246.213 687.445 246.213Z" stroke="#7E89A3"/>
<path d="M686.746 50.3113C687.866 50.3113 688.774 49.4009 688.774 48.2779C688.774 47.1549 687.866 46.2445 686.746 46.2445C685.626 46.2445 684.718 47.1549 684.718 48.2779C684.718 49.4009 685.626 50.3113 686.746 50.3113Z" stroke="#7E89A3"/>
<path fill-rule="evenodd" clip-rule="evenodd" d="M555.858 0H219.465C210.312 0 202.509 7.53093 202.509 16.8589V238.722H572.813V16.8589C572.813 7.53025 565.039 0 555.858 0Z" fill="#FEFEFE" stroke="#8492A5" stroke-width="2"/>
<path d="M388.34 15.6415C389.838 15.6415 391.052 14.4236 391.052 12.9213C391.052 11.4189 389.838 10.201 388.34 10.201C386.841 10.201 385.627 11.4189 385.627 12.9213C385.627 14.4236 386.841 15.6415 388.34 15.6415Z" stroke="#8492A5" stroke-width="2"/>
<path fill-rule="evenodd" clip-rule="evenodd" d="M587.607 259.792H187.784C166.999 259.792 153 252.641 153 249.599V240.355C153 239.441 153.905 238.703 155.031 238.703H620.359C621.486 238.703 622.393 239.441 622.393 240.355V249.963C622.388 252.367 611.547 259.792 587.607 259.792Z" fill="#FDFDFD" stroke="#8492A5" stroke-width="2"/>
<path d="M153.339 248.564H621.131" stroke="#8492A5" stroke-linecap="square"/>
<path d="M557.265 26.5226H217.43V225.108H557.265V26.5226Z" fill="white" stroke="#8492A5"/>
<path fill-rule="evenodd" clip-rule="evenodd" d="M438.527 239.383V241.483C438.527 242.98 435.588 243.432 433.364 243.432H342.096C339.755 243.432 336.796 242.98 336.796 241.483V239.383" fill="white"/>
<path d="M438.527 239.383V241.483C438.527 242.98 435.588 243.432 433.364 243.432H342.096C339.755 243.432 336.796 242.98 336.796 241.483V239.383" stroke="#8492A5"/>
<path fill-rule="evenodd" clip-rule="evenodd" d="M631.14 295.124C631.14 301.131 626.263 306 620.246 306H553.866C547.85 306 542.973 301.131 542.973 295.124V130.622C542.973 124.615 547.85 119.747 553.866 119.747H620.246C626.263 119.747 631.14 124.615 631.14 130.622V295.124Z" fill="#FDFDFD" stroke="#7E89A3" stroke-width="2"/>
<path d="M624.988 144.174H549.076V279.564H624.988V144.174Z" fill="white" stroke="#7E89A3"/>
<path fill-rule="evenodd" clip-rule="evenodd" d="M595.194 137.201C595.194 137.633 594.897 137.981 594.53 137.981H580.896C580.529 137.981 580.232 137.632 580.232 137.201V135.446C580.232 135.014 580.529 134.666 580.896 134.666H594.53C594.897 134.666 595.194 135.015 595.194 135.446V137.201Z" stroke="#7E89A3"/>
<path d="M587.734 129.893C588.858 129.893 589.769 128.979 589.769 127.853C589.769 126.726 588.858 125.812 587.734 125.812C586.61 125.812 585.699 126.726 585.699 127.853C585.699 128.979 586.61 129.893 587.734 129.893Z" stroke="#7E89A3"/>
<path d="M587.083 299.231C590.844 299.231 593.892 296.186 593.892 292.429C593.892 288.673 590.844 285.628 587.083 285.628C583.322 285.628 580.274 288.673 580.274 292.429C580.274 296.186 583.322 299.231 587.083 299.231Z" stroke="#7E89A3"/>
</g>
<defs>
<clipPath id="clip0_0_1">
<rect width="760" height="383" fill="white"/>
</clipPath>
</defs>
</svg>
